<svg version="1.1" id="Layer_1" xmlns="http://www.w3.org/2000/svg" xmlns:xlink="http://www.w3.org/1999/xlink" x="0px" y="0px" width="300" viewBox="0 0 300 300" enable-background="new 0 0 300 300" xml:space="preserve" height="300">
<path fill="#07998B" opacity="1.000000" stroke="none" d="
M131.000000,0.999999 
	C144.354233,1.000000 157.708450,1.000000 171.600708,1.387719 
	C174.159363,2.308000 176.154922,2.976934 178.204208,3.353315 
	C239.960892,14.695682 288.877869,64.570381 299.032959,126.490303 
	C299.236969,127.734276 300.324585,128.833344 301.000000,130.000000 
	C301.000000,133.361282 301.000000,136.722580 300.700073,140.736786 
	C300.304749,142.561386 300.209320,143.733078 300.070862,145.368240 
	C300.064453,149.253967 300.101105,152.676208 300.102722,156.509125 
	C300.075409,158.297241 300.083099,159.674683 300.058838,161.424881 
	C300.351257,162.865097 300.675629,163.932556 301.000000,165.000000 
	C301.000000,166.714355 301.000000,168.428711 300.630798,170.675110 
	C299.820129,172.596054 299.339874,173.973984 298.943329,175.375610 
	C295.923676,186.049316 294.076263,197.226852 289.717255,207.320511 
	C267.608429,258.515778 229.075592,289.424622 173.837814,299.024384 
	C172.808517,299.203278 171.942307,300.320557 171.000000,301.000000 
	C167.969406,301.000000 164.938812,301.000000 161.230103,300.701660 
	C159.077515,300.318939 157.603027,300.234558 155.663330,300.104187 
	C151.778778,300.065552 148.359451,300.072876 144.577454,300.053162 
	C143.143204,300.350708 142.071594,300.675354 141.000000,301.000000 
	C138.629440,301.000000 136.258896,301.000000 133.128662,300.960693 
	C130.581070,300.652161 128.793167,300.382965 126.800369,300.040527 
	C126.595497,299.967285 126.164307,299.908691 126.046509,299.614319 
	C124.302376,299.241943 122.676025,299.163910 120.854553,298.989288 
	C120.659431,298.892700 120.226952,298.841919 120.103447,298.495850 
	C109.675751,294.736084 99.371552,291.322418 89.049759,287.955353 
	C89.032166,288.001923 89.088951,287.919250 88.884766,287.638550 
	C84.452538,285.280487 80.224495,283.203156 75.868874,280.991638 
	C75.741295,280.857391 75.373100,280.817322 75.194489,280.525848 
	C72.033478,278.458954 69.051086,276.683533 66.047432,274.944366 
	C66.026176,274.980621 66.098839,274.938385 66.004730,274.695251 
	C65.594101,274.339203 65.277573,274.226318 64.956558,274.079041 
	C64.952072,274.044617 64.885269,274.063263 64.763000,273.778809 
	C63.757282,272.998993 62.873829,272.503632 61.853188,271.789673 
	C61.269680,271.329254 60.823357,271.087463 60.249825,270.580933 
	C59.782429,270.138031 59.442245,269.959900 59.102852,269.829529 
	C59.103642,269.877289 59.198994,269.871613 59.104469,269.615173 
	C58.686558,269.220215 58.363171,269.081635 57.912773,268.728363 
	C57.559341,268.254730 57.279766,268.081757 56.836117,267.725769 
	C56.220810,267.200714 55.716427,266.944611 55.185326,266.750366 
	C55.158604,266.812164 55.260155,266.723694 55.153976,266.443481 
	C54.393105,265.736389 53.738411,265.309509 53.065941,264.919128 
	C53.048164,264.955658 53.122833,264.923676 53.044502,264.663452 
	C52.650898,264.255737 52.335625,264.108276 51.893333,263.754822 
	C51.563030,263.282318 51.300411,263.102417 50.850964,262.701111 
	C47.316147,259.125549 43.908817,255.857986 40.470284,252.598328 
	C40.439079,252.606216 40.450958,252.542953 40.341824,252.243774 
	C39.185207,250.929993 38.137726,249.915375 37.049263,248.943848 
	C37.008282,248.986923 37.104942,248.917892 37.056526,248.651459 
	C36.724682,248.187469 36.441250,247.989899 36.146873,247.830322 
	C36.135925,247.868332 36.212334,247.847855 36.143871,247.565781 
	C35.786716,247.040985 35.498024,246.798264 35.116558,246.316376 
	C34.660397,245.723343 34.297005,245.369461 33.895248,244.761505 
	C33.586899,244.316605 33.316917,244.125793 33.022839,243.961975 
	C32.998737,243.988983 33.062180,243.954712 33.029594,243.692596 
	C32.737114,243.218887 32.477219,243.007263 32.115456,242.556458 
	C31.887930,242.197906 31.762266,242.078552 31.573223,241.655029 
	C30.035803,239.531021 28.561764,237.711151 27.056988,235.926971 
	C27.026253,235.962631 27.112955,235.925903 27.072247,235.611221 
	C26.373074,234.506317 25.714609,233.716080 25.029560,232.954071 
	C25.002975,232.982285 25.074331,232.952133 25.025978,232.621002 
	C23.986574,230.855713 22.995522,229.421585 22.001026,227.993698 
	C21.997583,227.999954 22.010218,227.997696 21.967993,227.646149 
	C20.366930,224.699600 18.808094,222.104614 17.245777,219.356049 
	C17.242296,219.202469 17.024168,218.986099 17.043991,218.687988 
	C16.733913,217.931564 16.404011,217.473267 16.085882,216.977478 
	C16.097654,216.940002 16.023598,216.913712 16.018389,216.557175 
	C14.741611,213.667679 13.470042,211.134735 12.198288,208.436157 
	C12.198102,208.270523 11.984534,208.017303 11.995008,207.642807 
	C10.814972,204.280289 9.624462,201.292267 8.403413,198.069580 
	C8.283726,197.527069 8.137127,197.249573 7.957216,196.608551 
	C6.381845,190.337845 4.782331,184.460983 3.207199,178.258331 
	C3.113063,177.291595 2.994546,176.650665 2.945192,175.607147 
	C2.342904,172.803024 1.671453,170.401520 1.000001,168.000000 
	C1.000000,155.645767 1.000000,143.291550 1.414755,130.390762 
	C2.957821,124.960228 4.016013,120.058823 5.225116,115.194931 
	C19.937685,56.010330 69.433304,10.842020 128.076996,2.956488 
	C129.120163,2.816219 130.028656,1.674458 131.000000,0.999999 
M200.665283,162.990692 
	C200.736389,162.658432 200.807495,162.326187 201.118332,161.700333 
	C201.118332,161.700333 201.161484,161.323746 201.661545,161.062943 
	C201.769424,160.714005 201.877304,160.365082 202.024277,160.007889 
	C202.024277,160.007889 202.005096,159.972870 202.547760,159.575653 
	C205.067184,154.731903 207.586609,149.888168 210.545059,144.786453 
	C210.757492,144.332977 210.969925,143.879501 211.657425,143.093735 
	C211.748291,142.725784 211.839157,142.357834 211.994888,141.971313 
	C211.994888,141.971313 211.968018,141.909409 212.451019,141.597336 
	C212.653381,141.078598 212.855728,140.559860 212.998444,140.005936 
	C212.998444,140.005936 213.055145,140.049286 213.558762,139.690033 
	C213.768280,139.124222 213.977798,138.558411 214.397064,137.917526 
	C214.397064,137.917526 214.365402,137.697021 214.857452,137.291702 
	C215.180023,136.522552 215.502594,135.753403 216.106644,134.699463 
	C216.106644,134.699463 216.170334,134.304138 216.629883,134.029495 
	C216.720779,133.693451 216.811661,133.357407 217.159637,132.792511 
	C217.159637,132.792511 217.219955,132.453659 217.758438,132.060699 
	C218.241272,130.917572 218.724121,129.774460 219.317734,128.369095 
	C196.872406,128.369095 174.958420,128.369095 152.534515,127.997498 
	C152.319824,127.638382 152.105133,127.279259 152.123093,126.189278 
	C152.256943,124.114311 152.390778,122.039352 152.716812,119.317619 
	C152.703217,118.870445 152.689621,118.423279 152.930099,117.139656 
	C153.459732,110.080788 153.989380,103.021927 154.712921,95.316605 
	C154.700653,94.869339 154.688370,94.422066 154.928528,93.149208 
	C155.368683,86.422974 155.808853,79.696747 156.573318,72.271568 
	C156.593109,71.505333 156.612915,70.739105 156.910141,69.143250 
	C157.449844,60.139050 157.989548,51.134846 158.529251,42.130646 
	C157.991287,41.953403 157.453323,41.776161 156.915359,41.598923 
	C154.954987,45.398937 152.994598,49.198952 150.980576,53.008808 
	C150.980576,53.008808 151.010513,53.054405 150.537338,53.388729 
	C150.340042,53.919441 150.142761,54.450157 150.002045,54.989944 
	C150.002045,54.989944 149.963287,54.947727 149.453156,55.267941 
	C149.257950,55.826771 149.062759,56.385601 148.936920,56.937813 
	C148.936920,56.937813 148.914032,56.872021 148.467957,57.077560 
	C148.191238,57.317249 148.095322,57.615143 147.892944,58.303806 
	C147.892944,58.303806 147.821960,58.737476 147.390686,58.999180 
	C147.308334,59.316658 147.225983,59.634132 146.672211,60.469170 
	C125.915047,97.956924 105.157883,135.444672 83.858612,173.911499 
	C107.248726,173.911499 129.451248,173.911499 151.906250,173.911499 
	C149.408234,203.593674 146.963959,232.637238 144.519684,261.680786 
	C146.250488,260.688629 147.239395,259.295074 148.066544,257.811371 
	C154.226028,246.762741 160.388840,235.715683 166.483170,224.631073 
	C177.378250,204.814697 188.226013,184.972305 199.607117,164.806580 
	C199.836288,164.248520 200.065460,163.690475 200.187424,163.149399 
	C200.187424,163.149399 200.210312,163.255493 200.665283,162.990692 
z"></path>
<path fill="#FCFEFE" opacity="1.000000" stroke="none" d="
M171.468658,301.000000 
	C171.942307,300.320557 172.808517,299.203278 173.837814,299.024384 
	C229.075592,289.424622 267.608429,258.515778 289.717255,207.320511 
	C294.076263,197.226852 295.923676,186.049316 298.943329,175.375610 
	C299.339874,173.973984 299.820129,172.596054 300.630798,171.103577 
	C301.000000,214.260300 301.000000,257.520599 301.000000,301.000000 
	C257.979340,301.000000 214.958328,301.000000 171.468658,301.000000 
z"></path>
<path fill="#FCFEFE" opacity="1.000000" stroke="none" d="
M301.000000,129.531342 
	C300.324585,128.833344 299.236969,127.734276 299.032959,126.490303 
	C288.877869,64.570381 239.960892,14.695682 178.204208,3.353315 
	C176.154922,2.976934 174.159363,2.308000 172.069366,1.387719 
	C214.926971,1.000000 257.853943,1.000000 301.000000,1.000000 
	C301.000000,43.687313 301.000000,86.375000 301.000000,129.531342 
z"></path>
<path fill="#FCFEFE" opacity="1.000000" stroke="none" d="
M130.531342,0.999999 
	C130.028656,1.674458 129.120163,2.816219 128.076996,2.956488 
	C69.433304,10.842020 19.937685,56.010330 5.225116,115.194931 
	C4.016013,120.058823 2.957821,124.960228 1.414755,129.922104 
	C1.000000,87.072739 1.000000,44.145470 1.000000,1.000000 
	C44.020649,1.000000 87.041664,1.000000 130.531342,0.999999 
z"></path>
<path fill="#FDFEFE" opacity="1.000000" stroke="none" d="
M2.876028,176.009750 
	C2.994546,176.650665 3.113063,177.291595 3.133673,178.709808 
	C3.898623,185.540710 3.622237,191.912857 7.933074,197.002411 
	C8.137127,197.249573 8.283726,197.527069 8.315035,198.500122 
	C9.499643,202.115997 10.742088,205.066650 11.984533,208.017303 
	C11.984534,208.017303 12.198102,208.270523 12.151855,208.858444 
	C12.156103,212.594223 12.020627,215.839645 16.023598,216.913712 
	C16.023598,216.913712 16.097654,216.940002 16.085526,217.263550 
	C16.390320,218.053436 16.707243,218.519775 17.024166,218.986099 
	C17.024168,218.986099 17.242296,219.202469 17.186699,219.764511 
	C18.757473,222.883606 20.383842,225.440643 22.010216,227.997696 
	C22.010218,227.997696 21.997583,227.999954 21.983662,228.366776 
	C23.004604,230.139771 24.039467,231.545959 25.074329,232.952133 
	C25.074331,232.952133 25.002975,232.982285 25.022535,233.295135 
	C25.732382,234.380615 26.422668,235.153259 27.112955,235.925903 
	C27.112955,235.925903 27.026253,235.962631 27.044052,236.291046 
	C28.586769,238.399353 30.111691,240.179260 31.636608,241.959183 
	C31.762266,242.078552 31.887930,242.197906 32.172192,242.800354 
	C32.574589,243.507172 32.818386,243.730942 33.062180,243.954712 
	C33.062180,243.954712 32.998737,243.988983 33.088524,244.199768 
	C33.350250,244.711868 33.602020,244.913544 33.933617,245.015579 
	C34.297005,245.369461 34.660397,245.723343 35.192314,246.593414 
	C35.644669,247.355682 35.928501,247.601776 36.212334,247.847855 
	C36.212334,247.847855 36.135925,247.868332 36.232002,248.071899 
	C36.587036,248.489624 36.845993,248.703751 37.104946,248.917877 
	C37.104942,248.917892 37.008282,248.986923 37.089100,249.279999 
	C38.263596,250.563034 39.357277,251.552994 40.450958,252.542953 
	C40.450958,252.542953 40.439079,252.606216 40.428246,252.955231 
	C43.056976,257.497711 45.088615,262.352692 50.978447,263.009125 
	C51.300411,263.102417 51.563030,263.282318 52.017113,263.976654 
	C52.552891,264.577515 52.837864,264.750580 53.122833,264.923676 
	C53.122833,264.923676 53.048164,264.955658 53.143517,265.227448 
	C53.912636,265.907379 54.586399,266.315521 55.260155,266.723694 
	C55.260155,266.723694 55.158604,266.812164 55.304558,267.016357 
	C55.949352,267.478577 56.448196,267.736633 56.947037,267.994690 
	C57.279766,268.081757 57.559341,268.254730 58.060093,268.935059 
	C58.622612,269.528198 58.910801,269.699890 59.198990,269.871613 
	C59.198994,269.871613 59.103642,269.877289 59.257378,270.070251 
	C59.733089,270.457336 60.055061,270.651520 60.377037,270.845673 
	C60.823357,271.087463 61.269680,271.329254 61.955605,272.094727 
	C63.091900,273.100006 63.988586,273.581635 64.885269,274.063263 
	C64.885269,274.063263 64.952072,274.044617 65.098221,274.275879 
	C65.480347,274.747681 65.765167,274.891418 66.098839,274.938385 
	C66.098839,274.938385 66.026176,274.980621 66.110344,275.287415 
	C69.254044,277.335236 72.313568,279.076263 75.373100,280.817322 
	C75.373100,280.817322 75.741295,280.857391 75.939499,281.332947 
	C79.138390,286.635468 83.881378,287.769684 89.088951,287.919250 
	C89.088951,287.919250 89.032166,288.001923 89.121078,288.300720 
	C90.791962,289.937317 92.177856,291.999451 93.989243,292.489807 
	C102.672020,294.840363 111.469933,296.765594 120.226952,298.841919 
	C120.226952,298.841919 120.659431,298.892700 121.170044,299.184631 
	C123.175209,299.620575 124.669754,299.764618 126.164307,299.908691 
	C126.164307,299.908691 126.595497,299.967285 126.801422,300.262085 
	C127.007347,300.556915 127.000000,301.000000 127.000000,301.000000 
	C85.072739,301.000000 43.145477,301.000000 1.000000,301.000000 
	C1.000000,258.979370 1.000000,216.958344 1.190625,174.667114 
	C1.879509,174.934540 2.377768,175.472137 2.876028,176.009750 
z"></path>
<path fill="#D0F7F5" opacity="1.000000" stroke="none" d="
M2.945191,175.607147 
	C2.377768,175.472137 1.879509,174.934540 1.190625,174.198456 
	C1.000000,172.285645 1.000000,170.571289 1.000001,168.428467 
	C1.671453,170.401520 2.342904,172.803024 2.945191,175.607147 
z"></path>
<path fill="#22B0A2" opacity="1.000000" stroke="none" d="
M144.940109,300.080231 
	C148.359451,300.072876 151.778778,300.065552 155.629623,300.316040 
	C156.061127,300.573822 156.000000,301.000000 156.000000,301.000000 
	C152.637894,301.000000 149.275803,301.000000 145.440598,300.770142 
	C144.967499,300.540253 144.940109,300.080231 144.940109,300.080231 
z"></path>
<path fill="#29B3A4" opacity="1.000000" stroke="none" d="
M300.137756,156.098450 
	C300.101105,152.676208 300.064453,149.253967 300.292969,145.383850 
	C300.558105,144.935974 301.000000,145.000000 301.000000,145.000000 
	C301.000000,148.362106 301.000000,151.724197 300.785156,155.573914 
	C300.570282,156.061539 300.137756,156.098450 300.137756,156.098450 
z"></path>
<path fill="#DBFAF9" opacity="1.000000" stroke="none" d="
M127.428467,301.000000 
	C127.000000,301.000000 127.007347,300.556915 127.006302,300.335358 
	C128.793167,300.382965 130.581070,300.652161 132.684494,300.960693 
	C131.285645,301.000000 129.571289,301.000000 127.428467,301.000000 
z"></path>
<path fill="#4AC6BC" opacity="1.000000" stroke="none" d="
M300.102722,156.509125 
	C300.137756,156.098450 300.570282,156.061539 300.785156,156.030762 
	C301.000000,157.388885 301.000000,158.777786 300.773193,160.604782 
	C300.546387,161.042892 300.090790,161.052109 300.090790,161.052109 
	C300.083099,159.674683 300.075409,158.297241 300.102722,156.509125 
z"></path>
<path fill="#47C9BE" opacity="1.000000" stroke="none" d="
M156.416656,301.000000 
	C156.000000,301.000000 156.061127,300.573822 156.094849,300.362000 
	C157.603027,300.234558 159.077515,300.318939 160.776001,300.701660 
	C159.611115,301.000000 158.222214,301.000000 156.416656,301.000000 
z"></path>
<path fill="#8EE9E1" opacity="1.000000" stroke="none" d="
M300.058838,161.424881 
	C300.090790,161.052109 300.546387,161.042892 300.773193,161.021454 
	C301.000000,162.066635 301.000000,163.133286 301.000000,164.599960 
	C300.675629,163.932556 300.351257,162.865097 300.058838,161.424881 
z"></path>
<path fill="#5BC3C2" opacity="1.000000" stroke="none" d="
M144.577454,300.053162 
	C144.940109,300.080231 144.967499,300.540253 144.983749,300.770142 
	C143.933334,301.000000 142.866653,301.000000 141.399994,301.000000 
	C142.071594,300.675354 143.143204,300.350708 144.577454,300.053162 
z"></path>
<path fill="#58CAC0" opacity="1.000000" stroke="none" d="
M301.000000,144.600006 
	C301.000000,145.000000 300.558105,144.935974 300.335999,144.920364 
	C300.209320,143.733078 300.304749,142.561386 300.700073,141.194855 
	C301.000000,142.066666 301.000000,143.133347 301.000000,144.600006 
z"></path>
<path fill="#FAFEFE" opacity="1.000000" stroke="none" d="
M154.676102,93.974800 
	C154.688370,94.422066 154.700653,94.869339 154.321564,95.852478 
	C153.512131,103.584274 153.094070,110.780190 152.676010,117.976105 
	C152.689621,118.423279 152.703217,118.870445 152.351044,119.803894 
	C151.986542,122.500633 147.065262,124.640678 151.890442,126.920143 
	C152.105133,127.279259 152.319824,127.638382 153.029785,128.445587 
	C155.114075,129.198090 156.703751,129.769791 158.292068,129.766068 
	C176.552353,129.723312 194.812744,129.528381 213.071960,129.615463 
	C214.459106,129.622070 215.837494,131.464554 217.219955,132.453659 
	C217.219955,132.453659 217.159637,132.792511 216.849457,133.083679 
	C216.416306,133.684616 216.293320,133.994370 216.170319,134.304138 
	C216.170334,134.304138 216.106644,134.699463 215.661896,134.988724 
	C214.933243,136.084335 214.649323,136.890686 214.365402,137.697021 
	C214.365402,137.697021 214.397064,137.917526 214.051361,138.146301 
	C213.488815,138.933136 213.271973,139.491211 213.055145,140.049286 
	C213.055145,140.049286 212.998444,140.005936 212.811920,140.202835 
	C212.406281,140.902954 212.187149,141.406189 211.968018,141.909409 
	C211.968018,141.909409 211.994888,141.971313 211.774170,142.183426 
	C211.429733,142.739029 211.306046,143.082535 211.182358,143.426025 
	C210.969925,143.879501 210.757492,144.332977 209.994888,145.010406 
	C206.964844,150.147186 204.484970,155.060028 202.005096,159.972870 
	C202.005096,159.972870 202.024277,160.007889 201.814178,160.193542 
	C201.456558,160.694046 201.309021,161.008896 201.161484,161.323746 
	C201.161484,161.323746 201.118332,161.700333 200.823456,162.020081 
	C200.316589,162.608261 200.210510,162.913467 200.210312,163.255493 
	C200.210312,163.255493 200.187424,163.149399 199.983154,163.313232 
	C199.550446,164.031647 199.322006,164.586227 199.093567,165.140793 
	C188.226013,184.972305 177.378250,204.814697 166.483170,224.631073 
	C160.388840,235.715683 154.226028,246.762741 148.066544,257.811371 
	C147.239395,259.295074 146.250488,260.688629 144.519684,261.680786 
	C146.963959,232.637238 149.408234,203.593674 151.906250,173.911499 
	C129.451248,173.911499 107.248726,173.911499 83.858612,173.911499 
	C105.157883,135.444672 125.915047,97.956924 147.081512,60.045464 
	C147.702805,59.365059 147.813187,59.070301 147.821960,58.737476 
	C147.821960,58.737476 147.892944,58.303806 148.217865,57.998589 
	C148.764389,57.463829 148.888138,57.190044 148.914032,56.872021 
	C148.914032,56.872021 148.936920,56.937813 149.136169,56.756287 
	C149.544708,56.032413 149.753998,55.490067 149.963287,54.947723 
	C149.963287,54.947727 150.002045,54.989944 150.194672,54.801674 
	C150.595047,54.093742 150.802780,53.574074 151.010513,53.054405 
	C151.010513,53.054405 150.980576,53.008808 151.327240,52.926003 
	C152.851959,51.825039 154.030014,50.806885 156.632706,48.557446 
	C156.632706,56.634407 156.632706,63.303638 156.632706,69.972870 
	C156.612915,70.739105 156.593109,71.505333 156.157730,72.869461 
	C155.386795,80.303177 155.031448,87.138985 154.676102,93.974800 
z"></path>
<path fill="#D8F9F8" opacity="1.000000" stroke="none" d="
M217.489197,132.257172 
	C215.837494,131.464554 214.459106,129.622070 213.071960,129.615463 
	C194.812744,129.528381 176.552353,129.723312 158.292068,129.766068 
	C156.703751,129.769791 155.114075,129.198090 153.284744,128.631378 
	C174.958420,128.369095 196.872406,128.369095 219.317734,128.369095 
	C218.724121,129.774460 218.241272,130.917572 217.489197,132.257172 
z"></path>
<path fill="#D8F9F8" opacity="1.000000" stroke="none" d="
M156.771423,69.558060 
	C156.632706,63.303638 156.632706,56.634407 156.632706,48.557446 
	C154.030014,50.806885 152.851959,51.825039 151.354065,52.921082 
	C152.994598,49.198952 154.954987,45.398937 156.915359,41.598923 
	C157.453323,41.776161 157.991287,41.953403 158.529251,42.130646 
	C157.989548,51.134846 157.449844,60.139050 156.771423,69.558060 
z"></path>
<path fill="#DBFAF9" opacity="1.000000" stroke="none" d="
M120.103447,298.495850 
	C111.469933,296.765594 102.672020,294.840363 93.989243,292.489807 
	C92.177856,291.999451 90.791962,289.937317 89.138672,288.254150 
	C99.371552,291.322418 109.675751,294.736084 120.103447,298.495850 
z"></path>
<path fill="#CBF3F1" opacity="1.000000" stroke="none" d="
M50.850964,262.701111 
	C45.088615,262.352692 43.056976,257.497711 40.459450,252.947342 
	C43.908817,255.857986 47.316147,259.125549 50.850964,262.701111 
z"></path>
<path fill="#D8F9F8" opacity="1.000000" stroke="none" d="
M152.803055,117.557877 
	C153.094070,110.780190 153.512131,103.584274 154.224609,96.175705 
	C153.989380,103.021927 153.459732,110.080788 152.803055,117.557877 
z"></path>
<path fill="#D8F9F8" opacity="1.000000" stroke="none" d="
M202.276428,159.774261 
	C204.484970,155.060028 206.964844,150.147186 209.775360,145.139389 
	C207.586609,149.888168 205.067184,154.731903 202.276428,159.774261 
z"></path>
<path fill="#DBFAF9" opacity="1.000000" stroke="none" d="
M88.884766,287.638550 
	C83.881378,287.769684 79.138390,286.635468 76.067078,281.467194 
	C80.224495,283.203156 84.452538,285.280487 88.884766,287.638550 
z"></path>
<path fill="#D0F7F5" opacity="1.000000" stroke="none" d="
M7.957216,196.608551 
	C3.622237,191.912857 3.898623,185.540710 3.109292,179.035614 
	C4.782331,184.460983 6.381845,190.337845 7.957216,196.608551 
z"></path>
<path fill="#D8F9F8" opacity="1.000000" stroke="none" d="
M154.802322,93.562004 
	C155.031448,87.138985 155.386795,80.303177 155.995575,73.218933 
	C155.808853,79.696747 155.368683,86.422974 154.802322,93.562004 
z"></path>
<path fill="#DBFAF9" opacity="1.000000" stroke="none" d="
M75.194489,280.525848 
	C72.313568,279.076263 69.254044,277.335236 66.131599,275.251160 
	C69.051086,276.683533 72.033478,278.458954 75.194489,280.525848 
z"></path>
<path fill="#D0F7F5" opacity="1.000000" stroke="none" d="
M21.967991,227.646149 
	C20.383842,225.440643 18.757473,222.883606 17.190178,219.918091 
	C18.808094,222.104614 20.366930,224.699600 21.967991,227.646149 
z"></path>
<path fill="#D0F7F5" opacity="1.000000" stroke="none" d="
M16.018389,216.557175 
	C12.020627,215.839645 12.156103,212.594223 12.152040,209.024078 
	C13.470042,211.134735 14.741611,213.667679 16.018389,216.557175 
z"></path>
<path fill="#D8F9F8" opacity="1.000000" stroke="none" d="
M152.006775,126.554710 
	C147.065262,124.640678 151.986542,122.500633 152.254944,120.127274 
	C152.390778,122.039352 152.256943,124.114311 152.006775,126.554710 
z"></path>
<path fill="#D0F7F5" opacity="1.000000" stroke="none" d="
M11.995007,207.642807 
	C10.742088,205.066650 9.499643,202.115997 8.345575,198.734802 
	C9.624462,201.292267 10.814972,204.280289 11.995007,207.642807 
z"></path>
<path fill="#D0F7F5" opacity="1.000000" stroke="none" d="
M31.573227,241.655029 
	C30.111691,240.179260 28.586769,238.399353 27.074787,236.255371 
	C28.561764,237.711151 30.035803,239.531021 31.573227,241.655029 
z"></path>
<path fill="#D0F7F5" opacity="1.000000" stroke="none" d="
M25.025978,232.621002 
	C24.039467,231.545959 23.004604,230.139771 21.987104,228.360519 
	C22.995522,229.421585 23.986574,230.855713 25.025978,232.621002 
z"></path>
<path fill="#CBF3F1" opacity="1.000000" stroke="none" d="
M40.341824,252.243774 
	C39.357277,251.552994 38.263596,250.563034 37.130081,249.236908 
	C38.137726,249.915375 39.185207,250.929993 40.341824,252.243774 
z"></path>
<path fill="#DBFAF9" opacity="1.000000" stroke="none" d="
M126.046509,299.614319 
	C124.669754,299.764618 123.175209,299.620575 121.365173,299.281189 
	C122.676025,299.163910 124.302376,299.241943 126.046509,299.614319 
z"></path>
<path fill="#D0F7F5" opacity="1.000000" stroke="none" d="
M27.072247,235.611221 
	C26.422668,235.153259 25.732382,234.380615 25.049120,233.266907 
	C25.714609,233.716080 26.373074,234.506317 27.072247,235.611221 
z"></path>
<path fill="#DBFAF9" opacity="1.000000" stroke="none" d="
M64.763000,273.778809 
	C63.988586,273.581635 63.091900,273.100006 62.092796,272.313324 
	C62.873829,272.503632 63.757282,272.998993 64.763000,273.778809 
z"></path>
<path fill="#D8F9F8" opacity="1.000000" stroke="none" d="
M214.611420,137.494354 
	C214.649323,136.890686 214.933243,136.084335 215.521149,135.131119 
	C215.502594,135.753403 215.180023,136.522552 214.611420,137.494354 
z"></path>
<path fill="#CBF3F1" opacity="1.000000" stroke="none" d="
M55.153976,266.443481 
	C54.586399,266.315521 53.912636,265.907379 53.161293,265.190918 
	C53.738411,265.309509 54.393105,265.736389 55.153976,266.443481 
z"></path>
<path fill="#D8F9F8" opacity="1.000000" stroke="none" d="
M150.773926,53.221565 
	C150.802780,53.574074 150.595047,54.093742 150.166382,54.797142 
	C150.142761,54.450157 150.340042,53.919441 150.773926,53.221565 
z"></path>
<path fill="#D8F9F8" opacity="1.000000" stroke="none" d="
M149.708221,55.107834 
	C149.753998,55.490067 149.544708,56.032413 149.101501,56.759594 
	C149.062759,56.385601 149.257950,55.826771 149.708221,55.107834 
z"></path>
<path fill="#CBF3F1" opacity="1.000000" stroke="none" d="
M56.836113,267.725769 
	C56.448196,267.736633 55.949352,267.478577 55.331276,266.954529 
	C55.716427,266.944611 56.220810,267.200714 56.836113,267.725769 
z"></path>
<path fill="#D8F9F8" opacity="1.000000" stroke="none" d="
M213.306946,139.869659 
	C213.271973,139.491211 213.488815,138.933136 213.946487,138.183823 
	C213.977798,138.558411 213.768280,139.124222 213.306946,139.869659 
z"></path>
<path fill="#D8F9F8" opacity="1.000000" stroke="none" d="
M212.209518,141.753372 
	C212.187149,141.406189 212.406281,140.902954 212.841736,140.220428 
	C212.855728,140.559860 212.653381,141.078598 212.209518,141.753372 
z"></path>
<path fill="#D8F9F8" opacity="1.000000" stroke="none" d="
M199.350342,164.973694 
	C199.322006,164.586227 199.550446,164.031647 200.036758,163.304749 
	C200.065460,163.690475 199.836288,164.248520 199.350342,164.973694 
z"></path>
<path fill="#D0F7F5" opacity="1.000000" stroke="none" d="
M17.043991,218.687988 
	C16.707243,218.519775 16.390320,218.053436 16.073753,217.301041 
	C16.404011,217.473267 16.733913,217.931564 17.043991,218.687988 
z"></path>
<path fill="#DBFAF9" opacity="1.000000" stroke="none" d="
M66.004730,274.695251 
	C65.765167,274.891418 65.480347,274.747681 65.102707,274.310303 
	C65.277573,274.226318 65.594101,274.339203 66.004730,274.695251 
z"></path>
<path fill="#D8F9F8" opacity="1.000000" stroke="none" d="
M211.419891,143.259888 
	C211.306046,143.082535 211.429733,142.739029 211.741730,142.192719 
	C211.839157,142.357834 211.748291,142.725784 211.419891,143.259888 
z"></path>
<path fill="#D8F9F8" opacity="1.000000" stroke="none" d="
M216.400101,134.166809 
	C216.293320,133.994370 216.416306,133.684616 216.720917,133.198120 
	C216.811661,133.357407 216.720779,133.693451 216.400101,134.166809 
z"></path>
<path fill="#D8F9F8" opacity="1.000000" stroke="none" d="
M201.411514,161.193344 
	C201.309021,161.008896 201.456558,160.694046 201.794647,160.197662 
	C201.877304,160.365082 201.769424,160.714005 201.411514,161.193344 
z"></path>
<path fill="#D8F9F8" opacity="1.000000" stroke="none" d="
M200.437805,163.123093 
	C200.210510,162.913467 200.316589,162.608261 200.703583,162.166885 
	C200.807495,162.326187 200.736389,162.658432 200.437805,163.123093 
z"></path>
<path fill="#CBF3F1" opacity="1.000000" stroke="none" d="
M33.029594,243.692596 
	C32.818386,243.730942 32.574589,243.507172 32.274055,243.039536 
	C32.477219,243.007263 32.737114,243.218887 33.029594,243.692596 
z"></path>
<path fill="#D8F9F8" opacity="1.000000" stroke="none" d="
M147.606323,58.868328 
	C147.813187,59.070301 147.702805,59.365059 147.317215,59.786682 
	C147.225983,59.634132 147.308334,59.316658 147.606323,58.868328 
z"></path>
<path fill="#CBF3F1" opacity="1.000000" stroke="none" d="
M33.895248,244.761505 
	C33.602020,244.913544 33.350250,244.711868 33.112625,244.172760 
	C33.316917,244.125793 33.586899,244.316605 33.895248,244.761505 
z"></path>
<path fill="#DBFAF9" opacity="1.000000" stroke="none" d="
M60.249825,270.580933 
	C60.055061,270.651520 59.733089,270.457336 59.256588,270.022461 
	C59.442245,269.959900 59.782429,270.138031 60.249825,270.580933 
z"></path>
<path fill="#DBFAF9" opacity="1.000000" stroke="none" d="
M59.104469,269.615173 
	C58.910801,269.699890 58.622612,269.528198 58.187103,269.149780 
	C58.363171,269.081635 58.686558,269.220215 59.104469,269.615173 
z"></path>
<path fill="#CBF3F1" opacity="1.000000" stroke="none" d="
M36.143867,247.565781 
	C35.928501,247.601776 35.644669,247.355682 35.285084,246.832550 
	C35.498024,246.798264 35.786716,247.040985 36.143867,247.565781 
z"></path>
<path fill="#CBF3F1" opacity="1.000000" stroke="none" d="
M37.056534,248.651459 
	C36.845993,248.703751 36.587036,248.489624 36.242947,248.033905 
	C36.441250,247.989899 36.724682,248.187469 37.056534,248.651459 
z"></path>
<path fill="#CBF3F1" opacity="1.000000" stroke="none" d="
M53.044502,264.663452 
	C52.837864,264.750580 52.552891,264.577515 52.144135,264.182617 
	C52.335625,264.108276 52.650898,264.255737 53.044502,264.663452 
z"></path>
<path fill="#D8F9F8" opacity="1.000000" stroke="none" d="
M148.690994,56.974792 
	C148.888138,57.190044 148.764389,57.463829 148.361481,57.832306 
	C148.095322,57.615143 148.191238,57.317249 148.690994,56.974792 
z"></path>
</svg>